:SAMPLES-PER-SECOND 30
:FULLY-SPECIFIED
:DEGREES
116
root  -23.5899 39.7028 5.62404 -6.64259 -7.25362 4.2901
RightUpLeg  -13.652 0.700081 -11.8113
RightLeg  67.3251 -1.45339 -4.52008
RightFoot  5.65725 -1.17142 8.07637
RightToes  1.16414e-010 0 -3.6325e-017
Spine  4.74512 0.520478 -4.93888
Spine1  9.62411 0.469462 -1.04358
HEad  -2.39885 8.97233 -3.60295
LeftShoulder1  8.0721 -11.4031 -47.2468
LeftArm  -9.8404 21.3963 -27.7719
LeftForeArm  22.0247 -19.8858 -3.85316
LeftHand  -0.244104 0.0205437 5.32207
RightShoulder  6.90049 10.1511 44.0965
RightArm  -0.184297 -15.2573 31.7962
RightForeArm  18.7038 5.92335 7.93369
RightHand  -0.612277 0.0293983 -13.1555
LeftUpLeg  -7.85482 16.5919 -8.58722
LeftLeg  20.4661 3.32104 1.52631
LeftFoot  -7.14075 -0.151101 5.29096
LeftToes  2.00086e-010 -2.05915e-011 4.26721e-011
117
root  -23.5293 39.9664 6.98641 -7.25174 -7.03001 3.94597
RightUpLeg  -17.8497 -0.862003 -10.4785
RightLeg  64.0386 -2.19812 -5.50454
RightFoot  4.43182 -0.950479 7.07805
RightToes  1.16414e-010 0 -3.6325e-017
Spine  5.37619 0.0375727 -4.64194
Spine1  9.32083 -0.201136 -0.642694
HEad  -2.88009 9.48058 -3.66457
LeftShoulder1  8.01228 -11.3519 -47.0538
LeftArm  -10.9674 18.3685 -26.7711
LeftForeArm  23.2881 -25.9095 -4.24621
LeftHand  -0.244104 0.0205437 5.32207
RightShoulder  6.60872 9.83975 43.1705
RightArm  0.188064 -20.1043 31.1302
RightForeArm  16.0612 8.09928 7.98312
RightHand  -0.639622 0.11493 -13.5319
LeftUpLeg  -3.2124 14.9202 -7.19704
LeftLeg  17.865 4.72651 0.343881
LeftFoot  -8.02613 -0.0888911 4.75544
LeftToes  2.00086e-010 -2.05915e-011 4.26721e-011
118
root  -23.4933 40.1649 8.35089 -7.71191 -6.8665 3.6044
RightUpLeg  -20.788 -2.23794 -9.04378
RightLeg  57.0184 -2.96082 -5.36853
RightFoot  3.15679 -0.921931 7.41281
RightToes  1.16414e-010 0 -3.6325e-017
Spine  5.74118 -0.392352 -4.4549
Spine1  9.04676 -0.810098 -0.0901377
HEad  -3.33842 9.90281 -3.68668
LeftShoulder1  7.8986 -11.2118 -46.822
LeftArm  -13.2394 15.6765 -25.5244
LeftForeArm  25.5882 -32.2573 -5.65625
LeftHand  -0.244104 0.0205437 5.32207
RightShoulder  6.31728 9.53694 42.1652
RightArm  1.27489 -24.3343 30.303
RightForeArm  10.8621 10.2179 8.02381
RightHand  -0.655728 0.0578099 -14.01
LeftUpLeg  0.995484 11.3668 -5.97929
LeftLeg  15.4332 7.76449 -1.19435
LeftFoot  -8.6738 -0.0526355 4.50081
LeftToes  2.00086e-010 -2.05915e-011 4.26721e-011
119
root  -23.5009 40.1908 9.71275 -7.99207 -6.27319 3.46072
RightUpLeg  -22.3229 -4.13798 -7.87457
RightLeg  46.7711 -3.52201 -4.32259
RightFoot  2.69654 -1.01487 8.37517
RightToes  1.16414e-010 0 -3.6325e-017
Spine  5.81819 -0.930304 -4.73749
Spine1  8.91003 -1.54192 0.464635
HEad  -3.8966 10.0882 -3.77395
LeftShoulder1  7.83877 -11.1381 -46.6979
LeftArm  -14.7649 13.0883 -23.9658
LeftForeArm  27.4453 -38.4302 -7.17904
LeftHand  -0.244104 0.0205437 5.32207
RightShoulder  6.0606 9.26081 41.2649
RightArm  1.51473 -27.5231 29.5408
RightForeArm  8.03382 11.3684 7.82887
RightHand  -0.652751 -0.0249742 -14.1536
LeftUpLeg  4.26242 8.97954 -5.47895
LeftLeg  14.24 9.3746 -2.25721
LeftFoot  -10.2864 0.0230116 4.11326
LeftToes  2.00086e-010 -2.05915e-011 4.26721e-011
120
root  -23.5561 40.029 11.1207 -8.04344 -5.40771 3.72772
RightUpLeg  -22.6663 -6.54809 -7.03984
RightLeg  34.3943 -3.73376 -3.02289
RightFoot  2.74601 -1.06406 8.74846
RightToes  1.16414e-010 0 -3.6325e-017
Spine  5.29782 -1.42321 -5.55017
Spine1  9.06558 -2.1595 0.867924
HEad  -4.68576 9.92828 -3.84881
LeftShoulder1  7.8166 -11.1733 -46.4484
LeftArm  -16.0213 10.47 -22.4894
LeftForeArm  29.4808 -43.7326 -8.69491
LeftHand  -0.244104 0.0205437 5.32207
RightShoulder  5.83874 9.017 40.4674
RightArm  0.117186 -29.8235 29.0542
RightForeArm  7.83098 11.3346 7.57508
RightHand  -0.62767 -0.153132 -13.9343
LeftUpLeg  6.84324 7.51482 -5.63223
LeftLeg  14.067 9.98124 -2.8502
LeftFoot  -12.6211 0.117893 3.7013
LeftToes  2.00086e-010 -2.05915e-011 4.26721e-011
121
root  -23.6361 39.8159 12.5902 -7.79315 -4.52293 4.26877
RightUpLeg  -22.216 -8.88021 -6.41375
RightLeg  20.7127 -2.86825 -1.35263
RightFoot  2.99611 -1.11454 9.00417
RightToes  1.16414e-010 0 -3.6325e-017
Spine  4.07164 -1.78412 -6.50901
Spine1  9.45227 -2.55089 1.33927
HEad  -5.38194 9.52411 -3.83271
LeftShoulder1  7.72801 -11.164 -45.9361
LeftArm  -17.0955 7.89309 -21.5337
LeftForeArm  31.3984 -47.7909 -10.0395
LeftHand  -0.244104 0.0205437 5.32207
RightShoulder  5.68279 8.85156 39.864
RightArm  -2.18814 -31.5439 28.6575
RightForeArm  7.97393 10.3061 7.39375
RightHand  -0.585902 -0.365383 -13.5424
LeftUpLeg  9.34916 6.12917 -6.26174
LeftLeg  13.4441 10.4913 -3.3288
LeftFoot  -14.5065 0.193835 3.8222
LeftToes  2.00086e-010 -2.05915e-011 4.26721e-011
122
root  -23.7322 39.5762 14.0975 -7.4617 -3.43774 4.89677
RightUpLeg  -21.0134 -9.35299 -6.79759
RightLeg  7.0485 -1.95898 0.645452
RightFoot  3.49532 -1.23805 9.66648
RightToes  1.16414e-010 0 -3.6325e-017
Spine  2.69922 -2.11156 -7.43455
Spine1  9.80634 -2.90236 1.9691
HEad  -5.75774 8.95381 -3.83488
LeftShoulder1  7.59414 -11.0486 -45.4832
LeftArm  -17.7896 5.35548 -20.9352
LeftForeArm  32.6611 -50.5076 -11.0765
LeftHand  -0.244104 0.0205437 5.32207
RightShoulder  5.61854 8.77837 39.6271
RightArm  -4.43785 -32.6877 28.1455
RightForeArm  7.85737 8.64297 7.13536
RightHand  -0.547319 -0.570358 -13.1744
LeftUpLeg  12.0076 5.22182 -6.94011
LeftLeg  12.5151 10.318 -3.71721
LeftFoot  -16.3589 0.271957 3.98236
LeftToes  2.00086e-010 -2.05915e-011 4.26721e-011
123
root  -23.8669 39.1886 15.6604 -7.4447 -1.9493 5.57632
RightUpLeg  -19.6121 -7.23066 -8.68777
RightLeg  -2.54034 -2.96938 2.31743
RightFoot  2.65078 -1.32165 10.9287
RightToes  1.16414e-010 0 -3.6325e-017
Spine  1.75505 -2.47181 -8.50661
Spine1  9.99456 -3.3295 2.59219
HEad  -6.1246 8.26883 -4.0368
LeftShoulder1  7.5453 -10.984 -45.3882
LeftArm  -18.0468 2.91224 -20.3973
LeftForeArm  33.149 -51.8327 -11.6434
LeftHand  -0.244104 0.0205437 5.32207
RightShoulder  5.61096 8.74853 39.6739
RightArm  -6.17441 -33.0448 27.7782
RightForeArm  7.98844 6.798 6.62765
RightHand  -0.533993 -0.641893 -13.0402
LeftUpLeg  14.6668 5.44619 -7.10537
LeftLeg  12.9086 8.48048 -3.9156
LeftFoot  -19.2171 0.326757 3.11404
LeftToes  2.00086e-010 -2.05915e-011 4.26721e-011
